<svg t="1706616825242" class="icon" viewBox="0 0 1024 1024" version="1.1" xmlns="http://www.w3.org/2000/svg" p-id="6047" width="200" height="200"><path d="M788.992 936.11008c-11.84768 0-22.3744-2.51904-32.54272-4.95616-2.4064-0.57344-4.80256-1.14688-7.19872-1.67936-272.56832-60.40576-489.44128-265.39008-627.15904-592.83456L118.26176 327.68c-9.89184-22.9888-20.1216-46.7456-20.14208-75.42784-0.02048-43.08992 17.05984-84.51072 46.85824-113.64352 27.57632-26.95168 63.37536-41.34912 100.88448-40.448a44.92288 44.92288 0 0 1 28.03712 10.56768c45.38368 38.57408 103.15776 142.20288 102.30784 199.41376-0.31744 21.49376-19.5584 33.71008-35.01056 43.52-5.95968 3.77856-15.9232 10.10688-17.16224 13.24032 38.23616 81.53088 291.61472 344.53504 345.97888 346.30656 2.46784-2.56 5.61152-11.8272 7.51616-17.47968 5.1712-15.24736 12.24704-36.13696 32.84992-37.46816 64.01024-4.15744 195.75808 69.91872 220.68224 136.99072 9.59488 25.81504 5.5808 52.5312-11.59168 77.24032-26.38848 37.9904-81.2544 65.57696-130.41664 65.60768l-0.06144 0.01024z m-546.31424-808.96c-28.69248 0-56.09472 11.37664-77.40416 32.21504-24.24832 23.69536-38.144 57.5488-38.12352 92.8768 0.01024 22.70208 8.64256 42.74176 17.7664 63.95904l3.92192 9.17504C284.672 648.32512 488.78592 842.02496 755.52768 901.13024c2.56 0.57344 5.12 1.1776 7.68 1.80224 8.92928 2.14016 17.3568 4.15744 25.79456 4.15744h0.04096c39.74144-0.03072 85.56544-22.87616 106.60864-53.1456 11.6736-16.80384 14.42816-33.82272 8.20224-50.57536-19.89632-53.58592-138.24-121.23136-191.0272-118.15936-2.54976 2.4064-5.9392 12.3904-7.79264 17.84832-5.29408 15.616-12.53376 36.99712-34.02752 37.20192h-0.27648c-74.01472 0.01024-337.64352-287.7952-372.80768-363.68384-11.38688-24.576 12.15488-39.51616 27.72992-49.408 9.05216-5.75488 21.46304-13.62944 21.54496-19.44576 0.70656-48.31232-52.98176-143.62624-92.08832-176.86528a15.81056 15.81056 0 0 0-9.90208-3.66592 69.44768 69.44768 0 0 0-2.52928-0.04096z m469.59616 558.08z" p-id="6048"></path></svg>